<?xml version="1.0" encoding="UTF-8" standalone="no"?>
<!-- Created with Inkscape (http://www.inkscape.org/) -->

<svg
   xmlns:dc="http://purl.org/dc/elements/1.1/"
   xmlns:cc="http://creativecommons.org/ns#"
   xmlns:rdf="http://www.w3.org/1999/02/22-rdf-syntax-ns#"
   xmlns:svg="http://www.w3.org/2000/svg"
   xmlns="http://www.w3.org/2000/svg"
   xmlns:sodipodi="http://sodipodi.sourceforge.net/DTD/sodipodi-0.dtd"
   xmlns:inkscape="http://www.inkscape.org/namespaces/inkscape"
   width="744.09448819"
   height="1052.3622047"
   id="svg2"
   version="1.1"
   inkscape:version="0.48.2 r9819"
   sodipodi:docname="PlayerReal.svg"
   inkscape:export-filename="/Users/negtrooper1/Documents/Third Semester/Game Design/RPFOD2/RPFOD2/Assets/Resources/Textures/PlayerReal.png"
   inkscape:export-xdpi="90"
   inkscape:export-ydpi="90">
  <defs
     id="defs4" />
  <sodipodi:namedview
     id="base"
     pagecolor="#ffffff"
     bordercolor="#666666"
     borderopacity="1.0"
     inkscape:pageopacity="0.0"
     inkscape:pageshadow="2"
     inkscape:zoom="0.7"
     inkscape:cx="543.28729"
     inkscape:cy="523.34243"
     inkscape:document-units="px"
     inkscape:current-layer="layer1"
     showgrid="true"
     showguides="false"
     inkscape:snap-global="false"
     inkscape:window-width="1680"
     inkscape:window-height="1002"
     inkscape:window-x="0"
     inkscape:window-y="0"
     inkscape:window-maximized="1">
    <inkscape:grid
       type="xygrid"
       id="grid2985" />
  </sodipodi:namedview>
  <metadata
     id="metadata7">
    <rdf:RDF>
      <cc:Work
         rdf:about="">
        <dc:format>image/svg+xml</dc:format>
        <dc:type
           rdf:resource="http://purl.org/dc/dcmitype/StillImage" />
        <dc:title></dc:title>
      </cc:Work>
    </rdf:RDF>
  </metadata>
  <g
     inkscape:label="Layer 1"
     inkscape:groupmode="layer"
     id="layer1">
    <path
       sodipodi:type="arc"
       style="fill:#b3b3b3;fill-opacity:1;stroke:#000000;stroke-width:8;stroke-miterlimit:4;stroke-opacity:1;stroke-dasharray:none"
       id="path3833"
       sodipodi:cx="185"
       sodipodi:cy="322.36218"
       sodipodi:rx="30.714285"
       sodipodi:ry="54.285713"
       d="m 181.37296,376.26806 a 30.714285,54.285713 0 1 1 0.4164,0.0824 L 185,322.36218 z"
       sodipodi:start="1.6891622"
       sodipodi:end="7.9587054"
       transform="matrix(1.13496,1.2950457,-1.3525927,1.0866723,621.69363,8.8706601)" />
    <path
       sodipodi:end="7.9587054"
       sodipodi:start="1.6891622"
       d="m 181.37296,376.26806 a 30.714285,54.285713 0 1 1 0.4164,0.0824 L 185,322.36218 z"
       sodipodi:ry="54.285713"
       sodipodi:rx="30.714285"
       sodipodi:cy="322.36218"
       sodipodi:cx="185"
       id="path3835"
       style="fill:#b3b3b3;fill-opacity:1;stroke:#000000;stroke-width:8;stroke-miterlimit:4;stroke-opacity:1;stroke-dasharray:none"
       sodipodi:type="arc"
       transform="matrix(1.7656843,0,0,1.6905621,341.4048,189.0282)" />
    <path
       transform="matrix(1.7055201,0.43754967,-0.45699274,1.6329576,191.24802,-33.25309)"
       sodipodi:open="true"
       sodipodi:end="7.9275941"
       sodipodi:start="1.6891622"
       d="m 246.87369,324.85449 a 38.57143,52.142857 0 1 1 1.71811,0.22363"
       sodipodi:ry="52.142857"
       sodipodi:rx="38.57143"
       sodipodi:cy="273.07648"
       sodipodi:cx="251.42857"
       id="path3831"
       style="fill:#d38d5f;fill-opacity:1;stroke:#000000;stroke-width:12;stroke-miterlimit:4;stroke-opacity:1;stroke-dasharray:none"
       sodipodi:type="arc" />
    <path
       sodipodi:type="arc"
       style="fill:#d38d5f;fill-opacity:1;stroke:#000000;stroke-width:12;stroke-miterlimit:4;stroke-opacity:1;stroke-dasharray:none"
       id="path3829"
       sodipodi:cx="251.42857"
       sodipodi:cy="273.07648"
       sodipodi:rx="38.57143"
       sodipodi:ry="52.142857"
       d="m 246.87369,324.85449 a 38.57143,52.142857 0 1 1 1.71811,0.22363"
       sodipodi:start="1.6891622"
       sodipodi:end="7.9275941"
       sodipodi:open="true"
       transform="matrix(1.6592005,-0.57820628,0.60389961,1.5886087,46.878817,367.07687)" />
    <path
       id="rect3808"
       style="fill:#808080;fill-opacity:1;stroke:#000000;stroke-width:20.73258018;stroke-miterlimit:4;stroke-opacity:1"
       d="m 538.15247,94.002925 70.62737,0 0,405.734915 -70.62737,0 z m -20.17918,410.565155 116.03069,0 0,333.28219 -116.03069,0 z m -10e-5,-526.48937 110.98588,0 0,120.754438 -110.98588,0 z"
       inkscape:connector-curvature="0" />
    <rect
       style="fill:#b4b4b4;fill-opacity:1;stroke:#000000;stroke-width:0;stroke-miterlimit:4;stroke-opacity:1;stroke-dasharray:none"
       id="rect3818"
       width="35.313686"
       height="328.45209"
       x="558.33179"
       y="122.98406" />
    <rect
       style="fill:#969696;fill-opacity:1;stroke:#000000;stroke-width:0;stroke-miterlimit:4;stroke-opacity:1;stroke-dasharray:none"
       id="rect3820"
       width="35.313686"
       height="106.2639"
       x="558.33179"
       y="350.00235" />
    <rect
       style="fill:#cccccc;fill-opacity:1;stroke:#000000;stroke-width:0;stroke-miterlimit:4;stroke-opacity:1;stroke-dasharray:none"
       id="rect3822"
       width="69.366165"
       height="24.150885"
       x="540.67493"
       y="-6.2231293" />
    <path
       sodipodi:type="arc"
       style="fill:#333333;fill-opacity:1;stroke:#000000;stroke-width:31.90962981999999926;stroke-miterlimit:4;stroke-opacity:1;stroke-dasharray:none"
       id="path3804"
       sodipodi:cx="450"
       sodipodi:cy="782.36218"
       sodipodi:rx="184.28572"
       sodipodi:ry="192.85715"
       d="m 428.23776,973.8699 a 184.28572,192.85715 0 1 1 8.20876,0.82714"
       sodipodi:start="1.6891622"
       sodipodi:end="7.9275941"
       sodipodi:open="true"
       transform="matrix(0.57681447,0,0,0.50465594,392.09426,419.59862)" />
    <path
       transform="matrix(0.57681447,0,0,0.50465594,-142.65585,419.59862)"
       sodipodi:open="true"
       sodipodi:end="7.9275941"
       sodipodi:start="1.6891622"
       d="m 428.23776,973.8699 a 184.28572,192.85715 0 1 1 8.20876,0.82714"
       sodipodi:ry="192.85715"
       sodipodi:rx="184.28572"
       sodipodi:cy="782.36218"
       sodipodi:cx="450"
       id="path3802"
       style="fill:#333333;fill-opacity:1;stroke:#000000;stroke-width:31.90962981999999926;stroke-miterlimit:4;stroke-opacity:1;stroke-dasharray:none"
       sodipodi:type="arc" />
    <path
       style="fill:#666666;fill-opacity:1;stroke:#000000;stroke-width:20.73258017999999936;stroke-miterlimit:4;stroke-dasharray:none"
       d="m 386.80812,581.87255 c -85.31041,0 -160.55879,41.34968 -204.98491,104.28655 -0.009,0.0118 0.009,0.0409 0,0.0527 -52.64941,14.633 -92.477724,83.4371 -92.477724,166.15056 0,93.36717 50.745664,169.05624 113.390044,169.05624 13.99464,0 27.40628,-3.8165 39.78308,-10.7245 40.60902,28.0069 90.4202,44.5357 144.28951,44.5357 53.86932,0 103.68049,-16.5288 144.28952,-44.5357 12.3768,6.908 25.78844,10.7245 39.78308,10.7245 62.64438,0 113.39004,-75.68907 113.39004,-169.05624 0,-82.71346 -39.82831,-151.51756 -92.47772,-166.15056 C 547.37017,623.25499 472.13468,581.87255 386.80812,581.87255 z"
       id="path3769"
       inkscape:connector-curvature="0" />
    <path
       id="path3782"
       d="m 387.32049,595.25969 c -77.67551,0 -146.18952,35.6316 -186.6397,89.8651 -0.009,0.008 0.009,0.035 0,0.0455 -47.93754,12.60946 -84.20139,71.89888 -84.20139,143.17416 0,80.45569 46.20418,145.6779 103.24217,145.6779 12.74213,0 24.9535,-3.28865 36.22265,-9.24141 36.97468,24.13396 82.32801,38.37706 131.37627,38.37706 49.04826,0 94.40157,-14.2431 131.37626,-38.37706 11.26912,5.95276 23.48051,9.24141 36.22264,9.24141 57.038,0 103.24216,-65.22221 103.24216,-145.6779 0,-71.27528 -36.26382,-130.5647 -84.20137,-143.17416 -40.44724,-54.2508 -108.94946,-89.91062 -186.63969,-89.91062 z"
       style="fill:#999999;fill-opacity:1;stroke:#000000;stroke-width:18.36435889999999915;stroke-miterlimit:4;stroke-opacity:0;stroke-dasharray:none"
       inkscape:connector-curvature="0" />
    <path
       style="fill:#666666;fill-opacity:1;stroke:none"
       d="M 220.0234,842.38756 281.173,987.8787 c -74.05213,-4.52247 -53.92709,-84.54422 -61.1496,-145.49114 z"
       id="path3784"
       inkscape:connector-curvature="0"
       sodipodi:nodetypes="ccc" />
    <path
       sodipodi:nodetypes="ccc"
       inkscape:connector-curvature="0"
       id="path3788"
       d="m 533.41362,852.0479 -61.14961,145.49114 c 74.05214,-4.52247 53.92709,-84.54421 61.14961,-145.49114 z"
       style="fill:#666666;fill-opacity:1;stroke:none" />
    <path
       sodipodi:type="arc"
       style="fill:#ff00ff;fill-opacity:1;stroke:#000000;stroke-width:8;stroke-miterlimit:4;stroke-opacity:1;stroke-dasharray:none"
       id="path3837"
       sodipodi:cx="170.71428"
       sodipodi:cy="277.36218"
       sodipodi:rx="19.285715"
       sodipodi:ry="33.57143"
       d="m 152.24778,287.04286 a 19.285715,33.57143 0 1 1 4.76225,13.94037 l 13.70425,-23.62105 z"
       sodipodi:start="2.8490785"
       sodipodi:end="8.6443189"
       transform="matrix(1.6140307,0,0,1.4273176,53.254668,240.30542)" />
    <path
       transform="matrix(-1.6633859,0,0,1.5263959,740.13802,214.03277)"
       sodipodi:end="8.6443189"
       sodipodi:start="2.8490785"
       d="m 152.24778,287.04286 a 19.285715,33.57143 0 1 1 4.76225,13.94037 l 13.70425,-23.62105 z"
       sodipodi:ry="33.57143"
       sodipodi:rx="19.285715"
       sodipodi:cy="277.36218"
       sodipodi:cx="170.71428"
       id="path3839"
       style="fill:#ff00ff;fill-opacity:1;stroke:#000000;stroke-width:8;stroke-miterlimit:4;stroke-opacity:1;stroke-dasharray:none"
       sodipodi:type="arc" />
  </g>
</svg>
