<?xml version="1.0" encoding="UTF-8" standalone="no"?>
<!-- Created with Inkscape (http://www.inkscape.org/) -->

<svg
   xmlns:osb="http://www.openswatchbook.org/uri/2009/osb"
   xmlns:dc="http://purl.org/dc/elements/1.1/"
   xmlns:cc="http://creativecommons.org/ns#"
   xmlns:rdf="http://www.w3.org/1999/02/22-rdf-syntax-ns#"
   xmlns:svg="http://www.w3.org/2000/svg"
   xmlns="http://www.w3.org/2000/svg"
   xmlns:sodipodi="http://sodipodi.sourceforge.net/DTD/sodipodi-0.dtd"
   xmlns:inkscape="http://www.inkscape.org/namespaces/inkscape"
   width="1252"
   height="1252"
   id="svg2"
   version="1.1"
   inkscape:version="0.48.2 r9819"
   sodipodi:docname="turret.svg">
  <defs
     id="defs4">
    <linearGradient
       id="linearGradient5217"
       osb:paint="solid">
      <stop
         style="stop-color:#323232;stop-opacity:1;"
         offset="0"
         id="stop5219" />
    </linearGradient>
  </defs>
  <sodipodi:namedview
     id="base"
     pagecolor="#ffffff"
     bordercolor="#666666"
     borderopacity="1.0"
     inkscape:pageopacity="0.0"
     inkscape:pageshadow="2"
     inkscape:zoom="0.49497475"
     inkscape:cx="442.84523"
     inkscape:cy="594.10195"
     inkscape:document-units="px"
     inkscape:current-layer="layer1"
     showgrid="true"
     showguides="false"
     inkscape:window-width="1440"
     inkscape:window-height="878"
     inkscape:window-x="0"
     inkscape:window-y="0"
     inkscape:window-maximized="0"
     inkscape:snap-global="false">
    <inkscape:grid
       type="xygrid"
       id="grid2985"
       empspacing="5"
       visible="true"
       enabled="true"
       snapvisiblegridlinesonly="true" />
  </sodipodi:namedview>
  <metadata
     id="metadata7">
    <rdf:RDF>
      <cc:Work
         rdf:about="">
        <dc:format>image/svg+xml</dc:format>
        <dc:type
           rdf:resource="http://purl.org/dc/dcmitype/StillImage" />
        <dc:title></dc:title>
      </cc:Work>
    </rdf:RDF>
  </metadata>
  <g
     inkscape:label="Layer 1"
     inkscape:groupmode="layer"
     id="layer1"
     transform="translate(0,199.63782)">
    <path
       transform="matrix(-0.90646435,-0.42228236,-0.42228236,0.90646435,1346.1056,-229.66654)"
       d="m 308.57143,377.36218 a 110.71429,82.14286 0 1 1 -221.42857,0 110.71429,82.14286 0 1 1 221.42857,0 z"
       sodipodi:ry="82.14286"
       sodipodi:rx="110.71429"
       sodipodi:cy="377.36218"
       sodipodi:cx="197.85715"
       id="path5318"
       style="fill:#505050;fill-opacity:1;stroke:#000000;stroke-width:9.99999995;stroke-miterlimit:4;stroke-opacity:1;stroke-dasharray:none"
       sodipodi:type="arc" />
    <path
       sodipodi:type="arc"
       style="fill:#505050;fill-opacity:1;stroke:#000000;stroke-width:10;stroke-miterlimit:4;stroke-opacity:1;stroke-dasharray:none"
       id="path5320"
       sodipodi:cx="197.85715"
       sodipodi:cy="377.36218"
       sodipodi:rx="110.71429"
       sodipodi:ry="82.14286"
       d="m 308.57143,377.36218 a 110.71429,82.14286 0 1 1 -221.42857,0 110.71429,82.14286 0 1 1 221.42857,0 z"
       transform="matrix(-0.40261099,-0.91537118,-0.91537118,0.40261099,1453.8743,590.99868)" />
    <path
       sodipodi:type="arc"
       style="fill:#505050;fill-opacity:1;stroke:#000000;stroke-width:9.99999995;stroke-miterlimit:4;stroke-opacity:1;stroke-dasharray:none"
       id="path5312"
       sodipodi:cx="197.85715"
       sodipodi:cy="377.36218"
       sodipodi:rx="110.71429"
       sodipodi:ry="82.14286"
       d="m 308.57143,377.36218 a 110.71429,82.14286 0 1 1 -221.42857,0 110.71429,82.14286 0 1 1 221.42857,0 z"
       transform="matrix(0.90646435,-0.42228236,0.42228236,0.90646435,-38.444924,-245.38083)" />
    <path
       transform="matrix(0.35036098,-0.93661475,0.93661475,0.35036098,-141.87171,619.4078)"
       d="m 308.57143,377.36218 a 110.71429,82.14286 0 1 1 -221.42857,0 110.71429,82.14286 0 1 1 221.42857,0 z"
       sodipodi:ry="82.14286"
       sodipodi:rx="110.71429"
       sodipodi:cy="377.36218"
       sodipodi:cx="197.85715"
       id="path5316"
       style="fill:#505050;fill-opacity:1;stroke:#000000;stroke-width:10;stroke-miterlimit:4;stroke-opacity:1;stroke-dasharray:none"
       sodipodi:type="arc" />
    <path
       sodipodi:type="arc"
       style="fill:#505050;fill-opacity:1;stroke:#000000;stroke-width:10;stroke-miterlimit:4;stroke-opacity:1;stroke-dasharray:none"
       id="path5223"
       sodipodi:cx="700"
       sodipodi:cy="962.36218"
       sodipodi:rx="220"
       sodipodi:ry="130"
       d="m 920,962.36218 a 220,130 0 1 1 -440,0 220,130 0 1 1 440,0 z"
       transform="translate(-34.741084,-367.08637)" />
    <path
       sodipodi:type="arc"
       style="fill:#c8c8c8;fill-opacity:1;stroke:#000000;stroke-width:3.66467619;stroke-miterlimit:4;stroke-opacity:1;stroke-dasharray:none"
       id="path5324"
       sodipodi:cx="418.20316"
       sodipodi:cy="1039.8679"
       sodipodi:rx="147.48227"
       sodipodi:ry="92.934036"
       d="m 565.68542,1039.8679 a 147.48227,92.934036 0 1 1 -294.96453,0 147.48227,92.934036 0 1 1 294.96453,0 z"
       transform="matrix(1.2876712,0,0,1.4456522,126.1722,-866.09787)" />
    <rect
       style="fill:#646464;fill-opacity:1;fill-rule:evenodd;stroke:#000000;stroke-width:10;stroke-linecap:butt;stroke-linejoin:miter;stroke-miterlimit:4;stroke-opacity:1;stroke-dasharray:none"
       id="rect2991"
       width="780"
       height="780"
       x="265.25891"
       y="-174.7242" />
    <path
       sodipodi:type="arc"
       style="fill:#641864;fill-opacity:1;stroke:#000000;stroke-width:7;stroke-miterlimit:4;stroke-opacity:1;stroke-dasharray:none"
       id="path5225"
       sodipodi:cx="450"
       sodipodi:cy="982.36218"
       sodipodi:rx="30"
       sodipodi:ry="50"
       d="m 480,982.36218 a 30,50 0 1 1 -60,0 30,50 0 1 1 60,0 z"
       transform="matrix(0.96787472,-0.25143295,0.25143295,0.96787472,-148.24668,-159.92587)" />
    <path
       transform="matrix(-0.96787472,-0.25143295,-0.25143295,0.96787472,1476.837,-164.83989)"
       d="m 480,982.36218 a 30,50 0 1 1 -60,0 30,50 0 1 1 60,0 z"
       sodipodi:ry="50"
       sodipodi:rx="30"
       sodipodi:cy="982.36218"
       sodipodi:cx="450"
       id="path5275"
       style="fill:#641864;fill-opacity:1;stroke:#000000;stroke-width:7;stroke-miterlimit:4;stroke-opacity:1;stroke-dasharray:none"
       sodipodi:type="arc" />
    <rect
       style="fill:#141414;fill-opacity:1;stroke:#000000;stroke-width:10;stroke-miterlimit:4;stroke-opacity:1;stroke-dasharray:none"
       id="rect5296"
       width="260"
       height="520"
       x="525.25891"
       y="-133.29562" />
    <rect
       style="fill:#282828;fill-opacity:1;stroke:#000000;stroke-width:11.25693989;stroke-miterlimit:4;stroke-opacity:1;stroke-dasharray:none"
       id="rect5298"
       width="69.795784"
       height="951.50592"
       x="621.77216"
       y="-81.88549" />
    <rect
       style="fill:#505050;fill-opacity:1;stroke:#000000;stroke-width:8.97501659;stroke-miterlimit:4;stroke-opacity:1;stroke-dasharray:none"
       id="rect5302"
       width="102.8821"
       height="221.56772"
       x="605.8382"
       y="804.64447" />
    <rect
       style="fill:#505050;fill-opacity:1;stroke:#000000;stroke-width:5;stroke-miterlimit:4;stroke-opacity:1;stroke-dasharray:none"
       id="rect5304"
       width="60"
       height="25.714285"
       x="-671.62311"
       y="-318.241"
       transform="matrix(-0.96726557,0.25376627,-0.25376627,-0.96726557,0,0)" />
    <rect
       y="-288.77786"
       x="-678.76239"
       height="25.714285"
       width="60"
       id="rect5306"
       style="fill:#505050;fill-opacity:1;stroke:#000000;stroke-width:5;stroke-miterlimit:4;stroke-opacity:1;stroke-dasharray:none"
       transform="matrix(-0.96580429,0.25927219,-0.25927219,-0.96580429,0,0)" />
    <rect
       transform="matrix(-0.96726557,-0.25376627,-0.25376627,0.96726557,0,0)"
       y="-75.450279"
       x="-649.65918"
       height="25.714285"
       width="60"
       id="rect5308"
       style="fill:#505050;fill-opacity:1;stroke:#000000;stroke-width:5;stroke-miterlimit:4;stroke-opacity:1;stroke-dasharray:none" />
    <rect
       transform="matrix(-0.96580429,-0.25927219,-0.25927219,0.96580429,0,0)"
       style="fill:#505050;fill-opacity:1;stroke:#000000;stroke-width:5;stroke-miterlimit:4;stroke-opacity:1;stroke-dasharray:none"
       id="rect5310"
       width="60"
       height="25.714285"
       x="-658.18176"
       y="-45.865902" />
    <rect
       style="fill:#c8c8c8;fill-opacity:1;stroke:#000000;stroke-width:0;stroke-miterlimit:4;stroke-opacity:1;stroke-dasharray:none"
       id="rect5322"
       width="83.920364"
       height="32.324883"
       x="614.17273"
       y="983.67188" />
    <path
       style="fill:#c8c8c8;fill-opacity:1;stroke:#000000;stroke-width:5;stroke-miterlimit:4;stroke-opacity:1;stroke-dasharray:none"
       id="path5354"
       d="m 295.76404,347.6382 c -3.09026,-0.49391 -5.02411,-0.70386 -8.23153,-1.84845 -7.48211,-2.67005 -14.66351,-6.12012 -22.05076,-9.04238 -18.87673,-7.46729 -13.94712,-5.50168 -34.2209,-11.94185 -18.05726,-4.65836 -36.28277,-9.56699 -54.96169,-11.01499 -8.71449,-0.67556 -19.87557,-0.90425 -28.34005,2.40482 -3.76974,1.47373 -6.85276,4.3094 -10.27915,6.4641 5.0203,-1.35039 11.10029,-7.41873 15.06088,-4.05115 3.35203,2.85012 -4.32639,7.68864 -5.99431,11.76017 -3.37512,8.23892 -5.37329,16.9984 -6.29549,25.83386 -0.4066,3.89551 -0.26936,7.82872 -0.40404,11.74308 0,0 -24.34103,12.2811 -24.34103,12.2811 l 0,0 c 0.18158,-4.06159 0.12143,-8.14122 0.54474,-12.18478 0.94705,-9.04653 2.8253,-17.994 5.98763,-26.54187 1.55893,-4.21385 2.3797,-9.11862 5.58446,-12.26763 9.28507,-9.12354 20.68695,-15.80686 31.03043,-23.7103 3.5505,-1.85151 6.83287,-4.34945 10.6515,-5.55454 8.44634,-2.66552 19.47611,-2.00285 27.96418,-1.09773 18.6034,1.98375 36.68422,7.11553 54.7685,11.63443 26.20349,7.85089 10.92247,3.00161 35.38412,11.33213 6.6869,2.27725 16.38056,5.75838 23.62403,7.41775 3.86681,0.88582 5.27135,0.74571 8.78713,0.75203 0,0 -24.26865,17.6322 -24.26865,17.6322 z"
       inkscape:connector-curvature="0"
       transform="translate(0,-199.63782)" />
    <path
       style="fill:#c8c8c8;fill-opacity:1;stroke:#000000;stroke-width:5;stroke-miterlimit:4;stroke-opacity:1;stroke-dasharray:none"
       id="path5356"
       d="m 327.65524,438.51586 c -1.20799,-0.15812 -2.43268,-0.21924 -3.62397,-0.47435 -12.86145,-2.75414 -25.48006,-6.99719 -38.17403,-10.38654 -19.7147,-5.26392 -20.58894,-5.30833 -40.71301,-10.04301 -30.82416,-6.9628 -62.15026,-11.28463 -93.66343,-13.34935 -3.56775,-0.14931 -11.59074,-0.66111 -15.49221,-0.22852 -1.79923,0.19949 -3.52868,0.81022 -5.29302,1.21534 6.95993,-3.74755 13.48366,-8.45303 20.8798,-11.24264 1.83321,-0.69143 -2.62845,2.96005 -3.53086,4.69913 -1.2504,2.4097 -1.9092,5.08288 -2.8638,7.62432 -4.34509,19.05104 -6.39397,39.03623 -3.50081,58.48708 0.58461,3.93036 1.61277,7.78185 2.41916,11.67277 4.9342,14.88266 2.03185,7.68112 8.66545,21.62132 0,0 -23.79319,13.47689 -23.79319,13.47689 l 0,0 c -6.73816,-14.37369 -3.76524,-6.96629 -8.88188,-22.23698 -0.83543,-3.99137 -1.90101,-7.94142 -2.50629,-11.97412 -2.93796,-19.5744 -1.00863,-39.60442 2.06919,-59.01502 0.35835,-1.36059 2.70371,-12.28375 4.87522,-13.80868 24.25986,-17.03633 26.46056,-18.65764 49.47053,-16.36973 30.8312,3.07387 61.35754,8.47366 91.58051,15.28372 21.66865,4.98239 20.0125,4.59391 41.49579,9.56383 14.67564,3.39504 29.58127,7.73142 44.7502,7.92448 0,0 -24.16935,17.56006 -24.16935,17.56006 z"
       inkscape:connector-curvature="0"
       transform="translate(0,-199.63782)" />
    <path
       style="fill:#c8c8c8;fill-opacity:1;stroke:#000000;stroke-width:5;stroke-miterlimit:4;stroke-opacity:1;stroke-dasharray:none"
       id="path5358"
       d="m 311.4928,559.73416 c -16.65177,-0.53823 -33.27477,-1.81119 -49.87695,-3.17334 -19.1186,-1.71666 -38.2918,-2.59709 -57.47658,-3.07195 -11.51386,0.30469 -23.80069,0.4666 -34.35392,5.62742 -12.20757,6.82101 13.97753,-8.06411 21.02384,-11.99415 0.5552,-0.30965 -1.03362,0.74061 -1.54094,1.12371 -1.51468,1.14381 -2.95917,2.36181 -4.48847,3.48745 -12.50596,9.664 -26.69949,15.01474 -40.36933,22.16446 44.69896,-25.01946 23.59103,-17.07205 18.43453,-8.02169 -2.67307,4.69159 -3.57697,9.93402 -4.59372,15.15216 -0.83914,6.96487 -2.08383,14.04568 -1.31086,21.07949 0.42893,3.90318 0.88975,5.11195 1.87412,8.89544 1.69222,5.1369 3.96541,10.06388 6.91321,14.6024 0.63057,0.97085 1.42163,1.83868 1.98336,2.85092 0.7772,1.40053 1.34571,2.90709 2.01856,4.36063 0,0 -25.3296,14.40329 -25.3296,14.40329 l 0,0 c -3.88061,-7.36744 -8.99082,-14.13425 -11.17737,-22.32771 -0.99999,-3.68 -1.66739,-5.61069 -2.12589,-9.42145 -0.87571,-7.2784 0.53864,-14.59733 1.26396,-21.8209 4.21666,-26.05975 6.82633,-22.45935 35.10312,-38.2501 10.90174,-5.61353 36.33131,-17.61077 -10.3991,7.32249 11.26984,-8.25612 22.57671,-16.7748 35.83523,-21.82304 10.93773,-3.68704 22.72411,-4.00379 34.16395,-3.96044 18.9948,0.68475 37.95055,2.03529 56.88713,3.66118 17.1985,1.30233 34.45844,2.54263 51.71107,1.57368 0,0 -24.16935,17.56005 -24.16935,17.56005 z"
       inkscape:connector-curvature="0"
       transform="translate(0,-199.63782)" />
    <path
       style="fill:#c8c8c8;fill-opacity:1;stroke:#000000;stroke-width:5;stroke-miterlimit:4;stroke-opacity:1;stroke-dasharray:none"
       id="path5362"
       d="m 968.01083,374.5429 c 40.68507,2.03473 81.44337,1.96656 122.16827,1.95974 36.6863,-0.70056 73.464,0.28963 110.1175,-1.72686 3.538,-0.28359 8.5915,-1.70273 11.747,1.37038 3.8462,3.74573 2.6449,9.7658 1.7961,14.17591 -1.1372,5.90846 -5.8786,19.75947 -7.5804,24.97695 -8.8462,23.09712 -15.2192,46.91308 -19.7518,71.19142 0,0 -24.3019,11.7911 -24.3019,11.7911 l 0,0 c 5.0788,-24.38768 11.361,-48.09194 19.8401,-71.55401 1.986,-6.67308 5.2041,-16.68965 6.5075,-23.79781 0.3004,-1.63775 1.8084,-8.28954 -0.6678,-10.50144 -2.2471,-2.00715 -8.1566,-1.18652 -10.1775,-1.14976 -35.3841,-0.15591 -70.7639,-1.53095 -106.1544,-1.24354 -42.5246,-0.007 -85.07353,0.0216 -127.56306,1.95975 0,0 24.02039,-17.45183 24.02039,-17.45183 z"
       inkscape:connector-curvature="0"
       transform="translate(0,-199.63782)" />
    <path
       style="fill:#c8c8c8;fill-opacity:1;stroke:#000000;stroke-width:5;stroke-miterlimit:4;stroke-opacity:1;stroke-dasharray:none"
       id="path5364"
       d="m 909.86084,284.06651 c 37.17276,7.01087 74.82042,11.30368 112.30476,16.28729 55.7331,7.86214 111.7171,13.76464 167.5349,20.94328 6.2802,1.1775 27.5547,2.02233 30.8641,9.87392 0.3305,0.78403 0.2264,1.68651 0.3397,2.52977 -0.2256,0.71715 -0.3136,1.49337 -0.6767,2.15147 -0.972,1.7593 -2.8873,2.93213 -4.2465,4.27781 -1.2346,1.2223 -2.442,2.47739 -3.5537,3.81248 -4.8265,5.79685 -5.6661,7.63977 -10.0154,14.42999 -7.8883,13.96635 -14.2518,28.7177 -21.1335,43.19036 0,0 -26.0841,8.04447 -26.0841,8.04447 l 0,0 c 6.9883,-14.37127 13.4633,-28.97776 20.5768,-43.2869 3.4138,-6.09887 8.494,-16.3117 14.1196,-20.93266 0.8583,-0.70508 2.1001,-0.86266 2.7981,-1.80999 0.1913,-0.23102 0.6284,-0.39818 0.5738,-0.69306 -0.2633,-1.41994 -2.8468,-2.83467 -3.6366,-3.23211 -7.1587,-3.60253 -15.383,-4.4759 -23.09,-6.1169 -54.2196,-9.49953 -108.895,-16.24159 -163.5084,-23.00341 -39.85522,-4.52731 -79.74358,-8.67273 -119.67825,-12.42987 0,0 26.51139,-14.03594 26.51139,-14.03594 z"
       inkscape:connector-curvature="0" />
    <path
       style="fill:#c8c8c8;fill-opacity:1;stroke:#000000;stroke-width:4.80237818;stroke-miterlimit:4;stroke-opacity:1;stroke-dasharray:none"
       id="path5366"
       d="m 1006.9132,400.71589 c 18.3616,0.44926 36.7301,0.71522 55.0956,0.97218 14.6055,0.29798 29.4404,0.13262 43.4022,5.41271 7.083,2.35102 10.2102,6.39043 13.0592,13.60678 3.2008,10.56513 5.6614,20.88921 6.1151,32.029 -0.9827,17.05953 -9.0764,32.20944 -17.0593,46.48044 -3.36,6.2752 -7.8678,11.42028 -12.663,16.37048 0,0 -24.3102,11.15792 -24.3102,11.15792 l 0,0 c 5.119,-4.6853 9.8917,-9.59033 13.4439,-15.8626 7.9944,-13.61106 16.011,-28.14004 17.1215,-44.63296 -0.2333,-10.64785 -2.5605,-20.86707 -5.9964,-30.83379 -2.7796,-6.70551 -5.4601,-9.15326 -11.8289,-11.62489 -13.2022,-5.3334 -27.3352,-5.53373 -41.2506,-5.94066 -19.0474,-0.2782 -38.1153,-0.65305 -57.13222,0.77542 0,0 22.00312,-17.91008 22.00312,-17.91008 z"
       inkscape:connector-curvature="0" />
    <path
       style="fill:#c8c8c8;fill-opacity:1;stroke:#000000;stroke-width:5;stroke-miterlimit:4;stroke-opacity:1;stroke-dasharray:none"
       id="path5368"
       d="m 957.69247,277.55021 c 19.6147,0.8311 39.26568,0.95372 58.88973,0.44472 15.5973,-0.20495 30.8524,-2.82305 46.0468,-6.04577 6.7992,-1.9566 12.8286,-1.95514 19.7515,-1.35226 8.3662,0.77243 16.7713,0.9449 25.1668,1.09094 12.5174,-0.23534 24.9277,0.26374 37.1121,3.26441 7.1458,2.00955 12.4791,6.7139 16.6149,12.70394 3.4094,4.24697 5.755,9.09496 7.5636,14.19667 1.5881,4.60139 1.8394,9.41024 2.0015,14.22492 0.046,4.39893 0.3536,8.81114 -0.3287,13.17268 -0.5012,2.86798 -1.9925,5.14421 -3.8748,7.28204 0,0 -27.4899,11.70736 -27.4899,11.70736 l 0,0 c 1.54,-2.0195 3.6076,-3.47465 4.5182,-5.94889 0.9733,-4.18244 0.8865,-8.37457 0.7692,-12.66355 -0.1055,-4.52028 -0.2894,-9.07509 -1.5626,-13.44709 -1.6075,-4.89348 -3.9243,-9.47599 -7.1231,-13.53835 -3.6236,-5.44867 -8.5832,-9.39259 -14.9487,-11.21072 -12.0029,-2.89189 -24.2496,-3.12508 -36.5546,-2.85521 -8.6488,-0.0563 -17.315,0.0383 -25.936,-0.77382 -6.3832,-0.43616 -12.5945,0.21097 -18.8366,1.67891 -14.8642,2.77451 -29.8176,4.5519 -44.97395,4.62894 -20.2913,0.31305 -40.59602,0.0391 -60.87542,0.92804 0,0 24.07004,-17.48791 24.07004,-17.48791 z"
       inkscape:connector-curvature="0"
       transform="translate(0,-199.63782)" />
    <path
       style="fill:#c8c8c8;fill-opacity:1;stroke:#000000;stroke-width:5;stroke-miterlimit:4;stroke-opacity:1;stroke-dasharray:none"
       id="path5370"
       d="m 317.77056,256.70644 c -29.74912,-10.73397 -55.73985,-29.46927 -81.70722,-47.05951 -32.70219,-22.50203 -64.56902,-46.4778 -99.16162,-66.0864 -4.20125,-2.38145 -8.51532,-4.55813 -12.77299,-6.83719 -7.51208,-2.90169 -22.04047,-12.07462 -30.707099,-9.06038 -1.335376,0.46444 -4.716043,3.08991 -3.439729,2.48167 7.421754,-3.53692 14.618338,-7.52816 21.927508,-11.29224 -0.78887,1.53385 -1.74478,2.99271 -2.36663,4.60154 -4.01388,10.38459 -3.80795,24.09214 -4.08881,35.10219 -0.0833,10.34442 -0.16573,20.70335 0.49581,31.03083 0,0 -25.805582,13.33158 -25.805582,13.33158 l 0,0 c -0.510951,-10.50711 0.02528,-21.03425 0.01513,-31.55005 0.3056,-13.75514 -1.17e-4,-28.04451 4.942796,-41.08919 9.236686,-6.13305 18.2834,-12.56231 27.71006,-18.39915 1.211,-0.74984 2.65798,-1.14906 4.07608,-1.28234 9.72671,-0.91423 21.34953,7.85804 29.60099,11.59455 37.6869,23.11387 72.68216,50.16045 109.38724,74.75327 20.06142,12.85434 38.88584,24.987 60.83184,34.45881 6.01514,2.5961 14.29236,5.70274 21.0055,7.22196 1.39897,0.31659 2.85048,0.32261 4.27572,0.48391 0,0 -24.21899,17.59614 -24.21899,17.59614 z"
       inkscape:connector-curvature="0"
       transform="translate(0,-199.63782)" />
    <path
       style="fill:#c8c8c8;fill-opacity:1;stroke:#000000;stroke-width:5;stroke-miterlimit:4;stroke-opacity:1;stroke-dasharray:none"
       id="path5386"
       d="m 535.96351,137.50844 c -9.31253,-0.34764 -18.63435,-0.41535 -27.95212,-0.52524 0,0 22.77314,-16.54566 22.77314,-16.54566 l 0,0 c 9.79979,-0.11194 19.60283,-0.18781 29.39797,-0.52524 0,0 -24.21899,17.59614 -24.21899,17.59614 z"
       inkscape:connector-curvature="0"
       transform="translate(0,-199.63782)" />
    <path
       style="fill:#c8c8c8;fill-opacity:1;stroke:#000000;stroke-width:5;stroke-miterlimit:4;stroke-opacity:1;stroke-dasharray:none"
       id="path5388"
       d="m 531.9229,196.09728 c -9.3506,-0.39691 -18.7113,-0.43834 -28.06873,-0.45118 0,0 22.97699,-16.69376 22.97699,-16.69376 l 0,0 c 9.77153,-0.0134 19.5453,-0.0714 29.31073,-0.45119 0,0 -24.21899,17.59613 -24.21899,17.59613 z"
       inkscape:connector-curvature="0"
       transform="translate(0,-199.63782)" />
    <path
       inkscape:connector-curvature="0"
       d="m 523.84168,69.190451 c -9.31253,-0.34764 -18.63435,-0.41535 -27.95212,-0.52524 0,0 22.77314,-16.54566 22.77314,-16.54566 l 0,0 c 9.79979,-0.11194 19.60283,-0.18781 29.39797,-0.52524 0,0 -24.21899,17.59614 -24.21899,17.59614 z"
       id="path5392"
       style="fill:#c8c8c8;fill-opacity:1;stroke:#000000;stroke-width:5;stroke-miterlimit:4;stroke-opacity:1;stroke-dasharray:none" />
    <path
       style="fill:#c8c8c8;fill-opacity:1;stroke:#000000;stroke-width:5;stroke-miterlimit:4;stroke-opacity:1;stroke-dasharray:none"
       id="path5394"
       d="m 523.84168,125.75899 c -9.31253,-0.34764 -18.63435,-0.41535 -27.95212,-0.52524 0,0 22.77314,-16.54566 22.77314,-16.54566 l 0,0 c 9.79979,-0.11194 19.60283,-0.18781 29.39797,-0.52524 0,0 -24.21899,17.59614 -24.21899,17.59614 z"
       inkscape:connector-curvature="0" />
    <path
       inkscape:connector-curvature="0"
       d="m 535.96351,178.28693 c -9.31253,-0.34764 -18.63435,-0.41535 -27.95212,-0.52524 0,0 22.77314,-16.54566 22.77314,-16.54566 l 0,0 c 9.79979,-0.11194 19.60283,-0.18781 29.39797,-0.52524 0,0 -24.21899,17.59614 -24.21899,17.59614 z"
       id="path5396"
       style="fill:#c8c8c8;fill-opacity:1;stroke:#000000;stroke-width:5;stroke-miterlimit:4;stroke-opacity:1;stroke-dasharray:none" />
    <path
       inkscape:connector-curvature="0"
       d="m 531.9229,236.87577 c -9.3506,-0.39691 -18.7113,-0.43834 -28.06873,-0.45118 0,0 22.97699,-16.69376 22.97699,-16.69376 l 0,0 c 9.77153,-0.0134 19.5453,-0.0714 29.31073,-0.45119 0,0 -24.21899,17.59613 -24.21899,17.59613 z"
       id="path5398"
       style="fill:#c8c8c8;fill-opacity:1;stroke:#000000;stroke-width:5;stroke-miterlimit:4;stroke-opacity:1;stroke-dasharray:none" />
    <path
       style="fill:#c8c8c8;fill-opacity:1;stroke:#000000;stroke-width:5;stroke-miterlimit:4;stroke-opacity:1;stroke-dasharray:none"
       id="path5400"
       d="m 523.84168,309.60676 c -9.31253,-0.34764 -18.63435,-0.41535 -27.95212,-0.52524 0,0 22.77314,-16.54566 22.77314,-16.54566 l 0,0 c 9.79979,-0.11194 19.60283,-0.18781 29.39797,-0.52524 0,0 -24.21899,17.59614 -24.21899,17.59614 z"
       inkscape:connector-curvature="0" />
    <path
       inkscape:connector-curvature="0"
       d="m 523.84168,366.1753 c -9.31253,-0.34764 -18.63435,-0.41535 -27.95212,-0.52524 0,0 22.77314,-16.54566 22.77314,-16.54566 l 0,0 c 9.79979,-0.11194 19.60283,-0.18781 29.39797,-0.52524 0,0 -24.21899,17.59614 -24.21899,17.59614 z"
       id="path5402"
       style="fill:#c8c8c8;fill-opacity:1;stroke:#000000;stroke-width:5;stroke-miterlimit:4;stroke-opacity:1;stroke-dasharray:none" />
    <path
       style="fill:#c8c8c8;fill-opacity:1;stroke:#000000;stroke-width:5;stroke-miterlimit:4;stroke-opacity:1;stroke-dasharray:none"
       id="path5404"
       d="m 778.7076,178.28693 c 9.31253,-0.34764 18.63435,-0.41535 27.95212,-0.52524 0,0 -22.77314,-16.54566 -22.77314,-16.54566 l 0,0 c -9.79979,-0.11194 -19.60283,-0.18781 -29.39797,-0.52524 0,0 24.21899,17.59614 24.21899,17.59614 z"
       inkscape:connector-curvature="0" />
    <path
       style="fill:#c8c8c8;fill-opacity:1;stroke:#000000;stroke-width:5;stroke-miterlimit:4;stroke-opacity:1;stroke-dasharray:none"
       id="path5406"
       d="m 782.74821,236.87577 c 9.3506,-0.39691 18.7113,-0.43834 28.06873,-0.45118 0,0 -22.97699,-16.69376 -22.97699,-16.69376 l 0,0 c -9.77153,-0.0134 -19.5453,-0.0714 -29.31073,-0.45119 0,0 24.21899,17.59613 24.21899,17.59613 z"
       inkscape:connector-curvature="0" />
    <path
       inkscape:connector-curvature="0"
       d="m 790.82943,309.60676 c 9.31253,-0.34764 18.63435,-0.41535 27.95212,-0.52524 0,0 -22.77314,-16.54566 -22.77314,-16.54566 l 0,0 c -9.79979,-0.11194 -19.60283,-0.18781 -29.39797,-0.52524 0,0 24.21899,17.59614 24.21899,17.59614 z"
       id="path5408"
       style="fill:#c8c8c8;fill-opacity:1;stroke:#000000;stroke-width:5;stroke-miterlimit:4;stroke-opacity:1;stroke-dasharray:none" />
    <path
       style="fill:#c8c8c8;fill-opacity:1;stroke:#000000;stroke-width:5;stroke-miterlimit:4;stroke-opacity:1;stroke-dasharray:none"
       id="path5410"
       d="m 790.82943,366.1753 c 9.31253,-0.34764 18.63435,-0.41535 27.95212,-0.52524 0,0 -22.77314,-16.54566 -22.77314,-16.54566 l 0,0 c -9.79979,-0.11194 -19.60283,-0.18781 -29.39797,-0.52524 0,0 24.21899,17.59614 24.21899,17.59614 z"
       inkscape:connector-curvature="0" />
    <path
       inkscape:connector-curvature="0"
       d="m 778.7076,-60.109071 c 9.31253,-0.34764 18.63435,-0.41535 27.95212,-0.52524 0,0 -22.77314,-16.54566 -22.77314,-16.54566 l 0,0 c -9.79979,-0.11194 -19.60283,-0.18781 -29.39797,-0.52524 0,0 24.21899,17.59614 24.21899,17.59614 z"
       id="path5412"
       style="fill:#c8c8c8;fill-opacity:1;stroke:#000000;stroke-width:5;stroke-miterlimit:4;stroke-opacity:1;stroke-dasharray:none" />
    <path
       inkscape:connector-curvature="0"
       d="m 782.74821,-1.5202306 c 9.3506,-0.39691 18.7113,-0.43834 28.06873,-0.45118 0,0 -22.97699,-16.6937604 -22.97699,-16.6937604 l 0,0 c -9.77153,-0.0134 -19.5453,-0.0714 -29.31073,-0.45119 0,0 24.21899,17.5961304 24.21899,17.5961304 z"
       id="path5414"
       style="fill:#c8c8c8;fill-opacity:1;stroke:#000000;stroke-width:5;stroke-miterlimit:4;stroke-opacity:1;stroke-dasharray:none" />
    <path
       style="fill:#c8c8c8;fill-opacity:1;stroke:#000000;stroke-width:5;stroke-miterlimit:4;stroke-opacity:1;stroke-dasharray:none"
       id="path5416"
       d="m 790.82943,71.210759 c 9.31253,-0.34764 18.63435,-0.41535 27.95212,-0.52524 0,0 -22.77314,-16.54566 -22.77314,-16.54566 l 0,0 c -9.79979,-0.11194 -19.60283,-0.18781 -29.39797,-0.52524 0,0 24.21899,17.59614 24.21899,17.59614 z"
       inkscape:connector-curvature="0" />
    <path
       inkscape:connector-curvature="0"
       d="m 790.82943,127.7793 c 9.31253,-0.34764 18.63435,-0.41535 27.95212,-0.52524 0,0 -22.77314,-16.54566 -22.77314,-16.54566 l 0,0 c -9.79979,-0.11194 -19.60283,-0.18781 -29.39797,-0.52524 0,0 24.21899,17.59614 24.21899,17.59614 z"
       id="path5418"
       style="fill:#c8c8c8;fill-opacity:1;stroke:#000000;stroke-width:5;stroke-miterlimit:4;stroke-opacity:1;stroke-dasharray:none" />
  </g>
</svg>
